<svg width="71" height="56" viewBox="0 0 71 56" fill="none" xmlns="http://www.w3.org/2000/svg">
<rect opacity="0.3" width="15" height="56" fill="url(#paint0_linear_92_176)"/>
<rect x="15" width="56" height="56" fill="#46D36D"/>
<path d="M52.69 34.523L47.97 29.803C47.49 29.323 46.98 29.213 46.39 29.213L43.85 31.753C43.85 32.343 43.96 32.863 44.44 33.333L49.16 38.053C49.55 38.443 50.18 38.443 50.57 38.053L52.69 35.933C53.08 35.553 53.08 34.913 52.69 34.523Z" fill="white"/>
<path d="M47.65 25.843C48.04 26.233 48.67 26.233 49.06 25.843L49.77 25.133L51.89 27.253C53.06 26.083 53.06 24.183 51.89 23.013L49.06 20.183C48.67 19.793 48.04 19.793 47.65 20.183L46.94 20.893V18.353C46.94 17.733 46.18 17.403 45.73 17.853L43.19 20.393C42.74 20.843 43.07 21.603 43.69 21.603H46.23L45.52 22.313C45.13 22.703 45.13 23.333 45.52 23.723L45.87 24.073L42.98 26.963L38.87 22.833V21.833C38.87 21.563 38.76 21.313 38.58 21.123L36.56 19.093C36.17 18.703 35.54 18.703 35.15 19.093L33.73 20.513C33.34 20.903 33.34 21.533 33.73 21.923L35.75 23.953C35.94 24.143 36.19 24.243 36.46 24.243H37.46L41.59 28.373L40.74 29.223H39.44C38.91 29.223 38.4 29.433 38.03 29.813L33.31 34.533C32.92 34.923 32.92 35.553 33.31 35.943L35.43 38.063C35.82 38.453 36.45 38.453 36.84 38.063L41.56 33.343C41.94 32.963 42.15 32.463 42.15 31.933V30.643L47.3 25.493L47.65 25.843Z" fill="white"/>
<defs>
<linearGradient id="paint0_linear_92_176" x1="15" y1="28.5" x2="-1.39667e-08" y2="28.5" gradientUnits="userSpaceOnUse">
<stop stop-color="#46D36D"/>
<stop offset="1" stop-color="#46D36D" stop-opacity="0"/>
</linearGradient>
</defs>
</svg>
