<svg width="70" height="56" viewBox="0 0 70 56" fill="none" xmlns="http://www.w3.org/2000/svg">
<rect opacity="0.3" width="14" height="56" fill="url(#paint0_linear_92_177)"/>
<rect x="14" width="56" height="56" fill="#46D36D"/>
<path d="M43 32H41C40.45 32 40 31.55 40 31H33.01V35C33.01 36.1 33.91 37 35.01 37H49C50.1 37 51 36.1 51 35V31H44C44 31.55 43.55 32 43 32ZM50 23H46C46 20.79 44.21 19 42 19C39.79 19 38 20.79 38 23H34C32.9 23 32 23.9 32 25V28C32 29.11 32.89 30 34 30H40V29C40 28.45 40.45 28 41 28H43C43.55 28 44 28.45 44 29V30H50C51.1 30 52 29.1 52 28V25C52 23.9 51.1 23 50 23ZM40 23C40 21.9 40.9 21 42 21C43.1 21 44 21.9 44 23H39.99H40Z" fill="white"/>
<defs>
<linearGradient id="paint0_linear_92_177" x1="14" y1="28.5" x2="-1.30356e-08" y2="28.5" gradientUnits="userSpaceOnUse">
<stop stop-color="#46D36D"/>
<stop offset="1" stop-color="#46D36D" stop-opacity="0"/>
</linearGradient>
</defs>
</svg>
