<svg width="177" height="40" viewBox="0 0 177 40" fill="none" xmlns="http://www.w3.org/2000/svg">
<g clip-path="url(#clip0_1_111)">
<path d="M122.699 16.5153C122.402 16.5153 122.141 16.4391 121.913 16.2904C121.685 16.1416 121.508 15.9276 121.381 15.6482C121.255 15.3725 121.19 15.0459 121.19 14.6686C121.19 14.2913 121.255 13.9684 121.381 13.6927C121.508 13.417 121.689 13.2029 121.917 13.0541C122.145 12.9054 122.409 12.8292 122.71 12.8292C122.941 12.8292 123.126 12.8691 123.26 12.9453C123.394 13.0215 123.499 13.1086 123.571 13.2065C123.643 13.3045 123.698 13.3843 123.737 13.446H123.785V11.69H124.331V16.4464H123.803V15.8985H123.737C123.698 15.9638 123.64 16.0437 123.567 16.1452C123.491 16.2432 123.386 16.3303 123.249 16.4065C123.111 16.4827 122.927 16.5226 122.699 16.5226V16.5153ZM122.771 16.0219C122.992 16.0219 123.177 15.9638 123.329 15.8477C123.481 15.7316 123.596 15.572 123.672 15.3688C123.752 15.162 123.792 14.9262 123.792 14.6577C123.792 14.3893 123.752 14.1571 123.676 13.9575C123.6 13.758 123.484 13.602 123.332 13.4895C123.18 13.377 122.996 13.3226 122.771 13.3226C122.547 13.3226 122.348 13.3807 122.192 13.5004C122.04 13.6201 121.924 13.7798 121.848 13.9793C121.772 14.1825 121.732 14.4074 121.732 14.6577C121.732 14.9081 121.772 15.1403 121.848 15.3471C121.928 15.5539 122.044 15.7171 122.196 15.8405C122.348 15.9638 122.54 16.0219 122.768 16.0219H122.771Z" fill="white"/>
<path d="M126.897 16.5153C126.553 16.5153 126.26 16.4391 126.01 16.2867C125.764 16.1343 125.572 15.9203 125.438 15.6446C125.305 15.3688 125.239 15.0496 125.239 14.6831C125.239 14.3167 125.305 13.9938 125.438 13.7144C125.572 13.4351 125.757 13.2174 125.999 13.0614C126.238 12.9054 126.521 12.8256 126.843 12.8256C127.027 12.8256 127.212 12.8546 127.393 12.9199C127.574 12.9852 127.737 13.0832 127.885 13.221C128.033 13.3589 128.153 13.5439 128.24 13.7689C128.326 13.9974 128.374 14.2768 128.374 14.6106V14.8428H125.63V14.3675H127.816C127.816 14.1679 127.776 13.9865 127.697 13.8305C127.617 13.6745 127.505 13.5475 127.36 13.4568C127.215 13.3661 127.042 13.319 126.846 13.319C126.629 13.319 126.441 13.3734 126.282 13.4822C126.122 13.5911 126.003 13.7289 125.916 13.9031C125.829 14.0736 125.789 14.2586 125.789 14.4546V14.7702C125.789 15.0387 125.837 15.2672 125.931 15.4523C126.025 15.6373 126.155 15.7788 126.322 15.8767C126.488 15.9747 126.683 16.0219 126.904 16.0219C127.049 16.0219 127.179 16.0001 127.295 15.9602C127.411 15.9203 127.512 15.8586 127.595 15.7752C127.682 15.6917 127.747 15.5901 127.791 15.4668L128.319 15.6155C128.265 15.7969 128.171 15.9529 128.041 16.0872C127.91 16.2214 127.747 16.3266 127.556 16.4028C127.364 16.479 127.147 16.5153 126.904 16.5153H126.897Z" fill="white"/>
<path d="M130.693 16.5153C130.35 16.5153 130.056 16.4391 129.807 16.2867C129.561 16.1343 129.369 15.9203 129.235 15.6446C129.101 15.3688 129.036 15.0496 129.036 14.6831C129.036 14.3167 129.101 13.9938 129.235 13.7144C129.369 13.4351 129.553 13.2174 129.796 13.0614C130.035 12.9054 130.317 12.8256 130.639 12.8256C130.824 12.8256 131.008 12.8546 131.189 12.9199C131.37 12.9852 131.533 13.0832 131.681 13.221C131.83 13.3589 131.949 13.5439 132.036 13.7689C132.123 13.9974 132.17 14.2768 132.17 14.6106V14.8428H129.427V14.3675H131.613C131.613 14.1679 131.573 13.9865 131.493 13.8305C131.414 13.6745 131.301 13.5475 131.157 13.4568C131.012 13.3661 130.838 13.319 130.643 13.319C130.426 13.319 130.237 13.3734 130.078 13.4822C129.919 13.5911 129.799 13.7289 129.713 13.9031C129.626 14.0736 129.586 14.2586 129.586 14.4546V14.7702C129.586 15.0387 129.633 15.2672 129.727 15.4523C129.821 15.6373 129.951 15.7788 130.118 15.8767C130.284 15.9747 130.48 16.0219 130.701 16.0219C130.845 16.0219 130.976 16.0001 131.092 15.9602C131.207 15.9203 131.309 15.8586 131.392 15.7752C131.479 15.6917 131.544 15.5901 131.587 15.4668L132.116 15.6155C132.061 15.7969 131.967 15.9529 131.837 16.0872C131.707 16.2214 131.544 16.3266 131.352 16.4028C131.16 16.479 130.943 16.5153 130.701 16.5153H130.693Z" fill="white"/>
<path d="M133.002 17.7778V12.8727H133.531V13.4387H133.596C133.636 13.377 133.694 13.2972 133.762 13.1992C133.835 13.1013 133.936 13.0142 134.074 12.938C134.208 12.8618 134.392 12.8219 134.624 12.8219C134.924 12.8219 135.188 12.8981 135.416 13.0469C135.644 13.1956 135.822 13.4097 135.952 13.6854C136.079 13.9611 136.144 14.2877 136.144 14.6613C136.144 15.035 136.079 15.3652 135.952 15.6409C135.825 15.9167 135.648 16.1307 135.42 16.2831C135.192 16.4355 134.931 16.508 134.635 16.508C134.407 16.508 134.222 16.4681 134.084 16.3919C133.947 16.3157 133.842 16.2287 133.766 16.1307C133.69 16.0327 133.636 15.9493 133.596 15.884H133.549V17.7706H133.002V17.7778ZM133.538 14.6577C133.538 14.9262 133.578 15.1656 133.657 15.3688C133.737 15.572 133.853 15.7352 134.001 15.8477C134.153 15.9638 134.338 16.0219 134.559 16.0219C134.779 16.0219 134.978 15.9602 135.13 15.8405C135.282 15.7207 135.402 15.5538 135.478 15.347C135.557 15.1403 135.594 14.9117 135.594 14.6577C135.594 14.4038 135.554 14.1788 135.478 13.9793C135.402 13.7797 135.286 13.6165 135.134 13.5004C134.982 13.3806 134.787 13.3226 134.555 13.3226C134.323 13.3226 134.146 13.3806 133.994 13.4895C133.842 13.602 133.73 13.758 133.65 13.9575C133.574 14.157 133.534 14.3929 133.534 14.6577H133.538Z" fill="white"/>
<path d="M140.356 12.8727V13.3371H138.514V12.8727H140.356ZM139.05 12.0165H139.596V15.416C139.596 15.572 139.618 15.6881 139.665 15.7643C139.712 15.8405 139.77 15.8913 139.843 15.9167C139.915 15.9421 139.991 15.9566 140.071 15.9566C140.132 15.9566 140.179 15.9566 140.219 15.9457C140.259 15.9384 140.288 15.9312 140.313 15.9275L140.425 16.421C140.389 16.4355 140.335 16.45 140.27 16.4645C140.204 16.479 140.118 16.4863 140.016 16.4863C139.861 16.4863 139.712 16.4536 139.564 16.3847C139.415 16.3157 139.296 16.2178 139.198 16.0799C139.101 15.9421 139.054 15.7715 139.054 15.5647V12.0165H139.05Z" fill="white"/>
<path d="M142.636 16.5153C142.293 16.5153 142 16.4391 141.75 16.2867C141.504 16.1343 141.312 15.9203 141.178 15.6446C141.044 15.3688 140.979 15.0496 140.979 14.6831C140.979 14.3167 141.044 13.9938 141.178 13.7144C141.312 13.4351 141.496 13.2174 141.739 13.0614C141.978 12.9054 142.26 12.8256 142.582 12.8256C142.767 12.8256 142.951 12.8546 143.132 12.9199C143.313 12.9852 143.476 13.0832 143.624 13.221C143.773 13.3589 143.892 13.5439 143.979 13.7689C144.066 13.9974 144.113 14.2768 144.113 14.6106V14.8428H141.37V14.3675H143.556C143.556 14.1679 143.516 13.9865 143.436 13.8305C143.357 13.6745 143.244 13.5475 143.1 13.4568C142.955 13.3661 142.781 13.319 142.586 13.319C142.369 13.319 142.18 13.3734 142.021 13.4822C141.862 13.5911 141.743 13.7289 141.656 13.9031C141.569 14.0736 141.529 14.2586 141.529 14.4546V14.7702C141.529 15.0387 141.576 15.2672 141.67 15.4523C141.764 15.6373 141.895 15.7788 142.061 15.8767C142.228 15.9747 142.423 16.0219 142.644 16.0219C142.788 16.0219 142.919 16.0001 143.035 15.9602C143.15 15.9203 143.252 15.8586 143.335 15.7752C143.422 15.6917 143.487 15.5901 143.53 15.4668L144.059 15.6155C144.004 15.7969 143.91 15.9529 143.78 16.0872C143.65 16.2214 143.487 16.3266 143.295 16.4028C143.103 16.479 142.886 16.5153 142.644 16.5153H142.636Z" fill="white"/>
<path d="M146.389 16.5153C146.057 16.5153 145.771 16.4355 145.528 16.2795C145.286 16.1235 145.101 15.9058 144.971 15.6264C144.841 15.3471 144.775 15.0314 144.775 14.6759C144.775 14.3203 144.84 13.9938 144.974 13.7144C145.108 13.4351 145.293 13.2174 145.535 13.0614C145.774 12.9054 146.057 12.8256 146.379 12.8256C146.628 12.8256 146.853 12.8727 147.055 12.9634C147.258 13.0541 147.421 13.1847 147.548 13.3553C147.674 13.5258 147.754 13.7181 147.786 13.9394H147.24C147.197 13.7761 147.106 13.631 146.961 13.5076C146.817 13.3843 146.628 13.319 146.386 13.319C146.172 13.319 145.988 13.3734 145.825 13.4859C145.666 13.5947 145.539 13.7507 145.452 13.9539C145.365 14.1571 145.318 14.3892 145.318 14.6577C145.318 14.9262 145.362 15.1729 145.449 15.3761C145.535 15.5792 145.658 15.7389 145.818 15.8514C145.977 15.9638 146.165 16.0219 146.382 16.0219C146.523 16.0219 146.654 15.9965 146.769 15.9493C146.885 15.8985 146.983 15.8296 147.063 15.7353C147.142 15.6409 147.2 15.5321 147.233 15.4015H147.779C147.75 15.6119 147.674 15.8006 147.551 15.9674C147.428 16.1343 147.269 16.2686 147.07 16.3665C146.871 16.4645 146.643 16.5153 146.379 16.5153H146.389Z" fill="white"/>
<path d="M149.133 14.2949V16.4391H148.586V11.6827H149.133V13.4278H149.18C149.263 13.2428 149.39 13.0977 149.556 12.9888C149.723 12.88 149.947 12.8256 150.226 12.8256C150.468 12.8256 150.682 12.8727 150.863 12.9707C151.044 13.0687 151.185 13.2138 151.286 13.4133C151.387 13.6129 151.438 13.8668 151.438 14.1716V16.4391H150.892V14.2115C150.892 13.9285 150.819 13.7072 150.671 13.5548C150.526 13.3988 150.323 13.3226 150.067 13.3226C149.886 13.3226 149.726 13.3589 149.585 13.4351C149.444 13.5113 149.332 13.6201 149.252 13.7689C149.173 13.914 149.129 14.0918 149.129 14.2986L149.133 14.2949Z" fill="white"/>
<path d="M122.941 20.7202V21.1846H121.023V20.7202H122.941ZM121.599 24.2866V20.2268C121.599 20.0236 121.646 19.8531 121.743 19.7152C121.837 19.5774 121.964 19.4758 122.116 19.4105C122.268 19.3416 122.431 19.3089 122.601 19.3089C122.735 19.3089 122.844 19.3198 122.93 19.3416C123.014 19.3633 123.079 19.3851 123.119 19.4032L122.963 19.8749C122.934 19.864 122.898 19.8531 122.847 19.8386C122.8 19.8241 122.735 19.8168 122.655 19.8168C122.474 19.8168 122.344 19.864 122.264 19.9547C122.185 20.0454 122.145 20.1796 122.145 20.3574V24.2866H121.599Z" fill="white"/>
<path d="M125.004 24.3591C124.682 24.3591 124.4 24.2829 124.161 24.1306C123.918 23.9782 123.73 23.7641 123.596 23.4884C123.462 23.2127 123.394 22.8898 123.394 22.5233C123.394 22.1569 123.462 21.8268 123.596 21.551C123.73 21.2753 123.918 21.0576 124.161 20.9052C124.403 20.7529 124.686 20.6767 125.004 20.6767C125.323 20.6767 125.609 20.7529 125.847 20.9052C126.09 21.0576 126.278 21.2717 126.412 21.551C126.546 21.8268 126.615 22.1533 126.615 22.5233C126.615 22.8934 126.546 23.2127 126.412 23.4884C126.278 23.7641 126.09 23.9782 125.847 24.1306C125.605 24.2829 125.323 24.3591 125.004 24.3591ZM125.004 23.8657C125.247 23.8657 125.449 23.804 125.605 23.6771C125.761 23.5501 125.88 23.3868 125.956 23.1836C126.032 22.9805 126.068 22.7592 126.068 22.5197C126.068 22.2803 126.032 22.059 125.956 21.8522C125.88 21.6454 125.764 21.4785 125.605 21.3515C125.446 21.2245 125.247 21.1592 125.004 21.1592C124.762 21.1592 124.559 21.2209 124.403 21.3515C124.244 21.4785 124.128 21.6454 124.052 21.8522C123.976 22.059 123.94 22.2803 123.94 22.5197C123.94 22.7592 123.976 22.9805 124.052 23.1836C124.128 23.3868 124.244 23.5537 124.403 23.6771C124.563 23.8004 124.762 23.8657 125.004 23.8657Z" fill="white"/>
<path d="M127.451 24.2866V20.7202H127.979V21.2571H128.015C128.08 21.0794 128.196 20.9379 128.366 20.829C128.536 20.7202 128.728 20.6658 128.942 20.6658C128.982 20.6658 129.032 20.6658 129.094 20.6658C129.155 20.6658 129.199 20.6694 129.231 20.673V21.2317C129.213 21.2281 129.17 21.2209 129.105 21.21C129.039 21.1991 128.971 21.1955 128.898 21.1955C128.725 21.1955 128.573 21.2317 128.435 21.3043C128.301 21.3769 128.193 21.4748 128.117 21.6018C128.037 21.7288 128.001 21.8703 128.001 22.0335V24.2902H127.454L127.451 24.2866Z" fill="white"/>
<path d="M133.158 24.3591C132.825 24.3591 132.539 24.2793 132.297 24.1233C132.054 23.9673 131.87 23.7496 131.739 23.4703C131.609 23.1909 131.544 22.8753 131.544 22.5197C131.544 22.1642 131.609 21.8376 131.743 21.5583C131.877 21.2789 132.061 21.0612 132.304 20.9052C132.543 20.7492 132.825 20.6694 133.147 20.6694C133.397 20.6694 133.621 20.7166 133.824 20.8073C134.027 20.898 134.189 21.0286 134.316 21.1991C134.443 21.3696 134.522 21.5619 134.555 21.7832H134.008C133.965 21.62 133.875 21.4748 133.73 21.3515C133.585 21.2281 133.397 21.1628 133.154 21.1628C132.941 21.1628 132.756 21.2172 132.593 21.3297C132.434 21.4385 132.308 21.5946 132.221 21.7977C132.134 22.0009 132.087 22.2331 132.087 22.5016C132.087 22.77 132.13 23.0167 132.217 23.2199C132.304 23.4231 132.427 23.5827 132.586 23.6952C132.745 23.8077 132.934 23.8657 133.151 23.8657C133.292 23.8657 133.422 23.8403 133.538 23.7932C133.654 23.7424 133.752 23.6734 133.831 23.5791C133.911 23.4848 133.969 23.3759 134.001 23.2453H134.548C134.519 23.4557 134.443 23.6444 134.32 23.8113C134.197 23.9782 134.037 24.1124 133.838 24.2104C133.639 24.3083 133.411 24.3591 133.147 24.3591H133.158Z" fill="white"/>
<path d="M136.799 24.3591C136.477 24.3591 136.194 24.2829 135.956 24.1306C135.713 23.9782 135.525 23.7641 135.391 23.4884C135.257 23.2127 135.188 22.8898 135.188 22.5233C135.188 22.1569 135.257 21.8268 135.391 21.551C135.525 21.2753 135.713 21.0576 135.956 20.9052C136.198 20.7529 136.48 20.6767 136.799 20.6767C137.117 20.6767 137.403 20.7529 137.642 20.9052C137.885 21.0576 138.073 21.2717 138.207 21.551C138.341 21.8268 138.409 22.1533 138.409 22.5233C138.409 22.8934 138.341 23.2127 138.207 23.4884C138.073 23.7641 137.885 23.9782 137.642 24.1306C137.4 24.2829 137.117 24.3591 136.799 24.3591ZM136.799 23.8657C137.041 23.8657 137.244 23.804 137.4 23.6771C137.555 23.5501 137.675 23.3868 137.751 23.1836C137.827 22.9805 137.863 22.7592 137.863 22.5197C137.863 22.2803 137.827 22.059 137.751 21.8522C137.675 21.6454 137.559 21.4785 137.4 21.3515C137.24 21.2245 137.041 21.1592 136.799 21.1592C136.556 21.1592 136.354 21.2209 136.198 21.3515C136.039 21.4785 135.923 21.6454 135.847 21.8522C135.771 22.059 135.735 22.2803 135.735 22.5197C135.735 22.7592 135.771 22.9805 135.847 23.1836C135.923 23.3868 136.039 23.5537 136.198 23.6771C136.357 23.8004 136.556 23.8657 136.799 23.8657Z" fill="white"/>
<path d="M139.245 24.2866V20.7202H139.774V21.2789H139.821C139.897 21.0866 140.016 20.9415 140.179 20.8327C140.346 20.7275 140.541 20.673 140.773 20.673C141.004 20.673 141.203 20.7275 141.359 20.8327C141.515 20.9379 141.638 21.0866 141.724 21.2789H141.761C141.851 21.0939 141.989 20.9488 142.17 20.8399C142.351 20.7311 142.571 20.6767 142.825 20.6767C143.143 20.6767 143.404 20.7746 143.606 20.9742C143.809 21.1737 143.91 21.4821 143.91 21.9029V24.2902H143.364V21.9029C143.364 21.6381 143.292 21.4531 143.147 21.3406C143.002 21.2281 142.836 21.1701 142.64 21.1701C142.39 21.1701 142.195 21.2463 142.057 21.395C141.92 21.5438 141.851 21.7361 141.851 21.9682V24.2902H141.294V21.8485C141.294 21.6454 141.229 21.4821 141.098 21.3587C140.968 21.2354 140.798 21.1701 140.592 21.1701C140.451 21.1701 140.317 21.2064 140.194 21.2825C140.071 21.3587 139.973 21.4639 139.897 21.5982C139.821 21.7324 139.785 21.8848 139.785 22.0626V24.2902H139.238L139.245 24.2866Z" fill="white"/>
<path d="M144.917 25.6253V20.7202H145.445V21.2862H145.51C145.55 21.2245 145.608 21.1447 145.677 21.0467C145.749 20.9488 145.85 20.8617 145.988 20.7855C146.122 20.7093 146.306 20.6694 146.538 20.6694C146.838 20.6694 147.102 20.7456 147.33 20.8943C147.558 21.0431 147.736 21.2571 147.866 21.5329C147.993 21.8086 148.058 22.1351 148.058 22.5088C148.058 22.8825 147.993 23.2127 147.866 23.4884C147.739 23.7641 147.562 23.9782 147.334 24.1306C147.106 24.2829 146.845 24.3555 146.549 24.3555C146.321 24.3555 146.136 24.3156 145.999 24.2394C145.861 24.1632 145.756 24.0761 145.68 23.9782C145.604 23.8802 145.55 23.7968 145.51 23.7315H145.463V25.6181H144.917V25.6253ZM145.452 22.5052C145.452 22.7737 145.492 23.0131 145.572 23.2163C145.651 23.4195 145.767 23.5827 145.915 23.6952C146.067 23.8113 146.252 23.8693 146.473 23.8693C146.693 23.8693 146.893 23.8077 147.045 23.6879C147.197 23.5682 147.316 23.4013 147.392 23.1945C147.472 22.9877 147.508 22.7592 147.508 22.5052C147.508 22.2512 147.468 22.0263 147.392 21.8268C147.316 21.6272 147.2 21.4639 147.048 21.3478C146.896 21.2281 146.701 21.1701 146.469 21.1701C146.237 21.1701 146.06 21.2281 145.908 21.337C145.756 21.4494 145.644 21.6054 145.564 21.805C145.488 22.0045 145.449 22.2403 145.449 22.5052H145.452Z" fill="white"/>
<path d="M149.936 24.37C149.712 24.37 149.506 24.3265 149.321 24.2394C149.136 24.1523 148.992 24.029 148.883 23.8657C148.775 23.7025 148.72 23.5029 148.72 23.2743C148.72 23.0712 148.76 22.9043 148.84 22.7773C148.919 22.6503 149.028 22.5487 149.162 22.4762C149.296 22.4036 149.444 22.3492 149.607 22.3129C149.77 22.2766 149.933 22.2476 150.099 22.2258C150.316 22.1968 150.49 22.175 150.627 22.1605C150.761 22.146 150.863 22.1206 150.924 22.0843C150.986 22.0481 151.018 21.9864 151.018 21.8993V21.8812C151.018 21.6526 150.957 21.4748 150.83 21.3479C150.707 21.2209 150.519 21.1592 150.266 21.1592C150.012 21.1592 149.799 21.2172 149.65 21.3297C149.502 21.4458 149.397 21.5655 149.339 21.6961L148.822 21.5111C148.916 21.2934 149.039 21.1265 149.194 21.0032C149.35 20.8798 149.52 20.7964 149.705 20.7492C149.889 20.7021 150.07 20.6767 150.251 20.6767C150.367 20.6767 150.497 20.6912 150.646 20.7166C150.794 20.742 150.939 20.8 151.08 20.8835C151.221 20.9669 151.337 21.0939 151.427 21.2608C151.521 21.4313 151.565 21.6562 151.565 21.9392V24.2902H151.018V23.8077H150.989C150.953 23.8839 150.892 23.9673 150.805 24.0544C150.718 24.1414 150.602 24.2176 150.461 24.2793C150.316 24.341 150.143 24.3736 149.936 24.3736V24.37ZM150.019 23.8766C150.237 23.8766 150.418 23.8331 150.566 23.7496C150.714 23.6662 150.827 23.5537 150.903 23.4195C150.979 23.2852 151.018 23.1437 151.018 22.995V22.4943C150.997 22.5233 150.946 22.5487 150.866 22.5705C150.79 22.5923 150.7 22.614 150.599 22.6286C150.497 22.6431 150.399 22.6576 150.305 22.6721C150.211 22.683 150.135 22.6939 150.074 22.7011C149.933 22.7193 149.799 22.7483 149.676 22.7918C149.553 22.8354 149.455 22.8934 149.379 22.9732C149.303 23.053 149.267 23.1655 149.267 23.3034C149.267 23.4957 149.339 23.6372 149.48 23.7351C149.621 23.8331 149.802 23.8802 150.019 23.8802V23.8766Z" fill="white"/>
<path d="M153.114 22.1424V24.2866H152.567V20.7202H153.096V21.2789H153.143C153.226 21.0975 153.353 20.9524 153.523 20.8399C153.693 20.7311 153.914 20.673 154.181 20.673C154.424 20.673 154.634 20.7238 154.815 20.8218C154.996 20.9197 155.137 21.0685 155.238 21.268C155.34 21.4676 155.39 21.7179 155.39 22.0227V24.2902H154.844V22.0626C154.844 21.7832 154.771 21.5619 154.627 21.4059C154.482 21.2499 154.283 21.1701 154.029 21.1701C153.856 21.1701 153.7 21.2064 153.563 21.2825C153.425 21.3587 153.316 21.4676 153.24 21.6163C153.161 21.7614 153.121 21.9392 153.121 22.146L153.114 22.1424Z" fill="white"/>
<path d="M156.664 20.1252C156.559 20.1252 156.465 20.0889 156.389 20.0164C156.313 19.9438 156.273 19.8567 156.273 19.7551C156.273 19.6535 156.313 19.5665 156.389 19.4939C156.465 19.4214 156.556 19.3851 156.664 19.3851C156.773 19.3851 156.863 19.4214 156.939 19.4939C157.015 19.5665 157.055 19.6535 157.055 19.7551C157.055 19.8567 157.015 19.9438 156.939 20.0164C156.863 20.0889 156.773 20.1252 156.664 20.1252ZM156.385 24.2866V20.7202H156.932V24.2866H156.385Z" fill="white"/>
<path d="M159.426 24.3591C159.082 24.3591 158.789 24.2829 158.539 24.1306C158.293 23.9782 158.101 23.7641 157.967 23.4884C157.833 23.2127 157.768 22.8934 157.768 22.527C157.768 22.1605 157.833 21.8376 157.967 21.5583C158.101 21.2789 158.286 21.0612 158.528 20.9052C158.767 20.7492 159.049 20.6694 159.371 20.6694C159.556 20.6694 159.74 20.6984 159.921 20.7637C160.102 20.829 160.265 20.927 160.414 21.0649C160.562 21.2027 160.681 21.3878 160.768 21.6127C160.855 21.8413 160.902 22.1206 160.902 22.4544V22.6866H158.159V22.2113H160.345C160.345 22.0118 160.305 21.8304 160.225 21.6744C160.146 21.5184 160.034 21.3914 159.889 21.3007C159.744 21.21 159.57 21.1628 159.375 21.1628C159.158 21.1628 158.97 21.2172 158.81 21.3261C158.651 21.4349 158.532 21.5728 158.445 21.7469C158.358 21.9175 158.318 22.1025 158.318 22.2984V22.614C158.318 22.8825 158.365 23.1111 158.459 23.2961C158.553 23.4811 158.684 23.6226 158.85 23.7206C159.017 23.8185 159.212 23.8657 159.433 23.8657C159.578 23.8657 159.708 23.8439 159.824 23.804C159.939 23.7641 160.041 23.7025 160.124 23.619C160.211 23.5356 160.276 23.434 160.319 23.3106L160.848 23.4594C160.794 23.6408 160.699 23.7968 160.569 23.931C160.439 24.0653 160.276 24.1705 160.084 24.2467C159.892 24.3228 159.675 24.3591 159.433 24.3591H159.426Z" fill="white"/>
<path d="M164.25 21.5184L163.758 21.6562C163.729 21.5728 163.682 21.493 163.624 21.4168C163.566 21.3406 163.483 21.2753 163.381 21.2245C163.28 21.1737 163.15 21.1483 162.99 21.1483C162.773 21.1483 162.592 21.1991 162.448 21.2971C162.303 21.3987 162.23 21.522 162.23 21.678C162.23 21.8159 162.281 21.9211 162.379 22.0009C162.476 22.0807 162.632 22.146 162.842 22.1968L163.37 22.3274C163.689 22.4036 163.924 22.5233 164.08 22.683C164.235 22.8426 164.315 23.0458 164.315 23.2961C164.315 23.4993 164.257 23.6843 164.141 23.844C164.025 24.0036 163.863 24.1306 163.653 24.2249C163.443 24.3192 163.2 24.3628 162.925 24.3628C162.563 24.3628 162.263 24.2829 162.024 24.1269C161.785 23.9709 161.637 23.7387 161.572 23.434L162.089 23.3034C162.14 23.4957 162.234 23.6408 162.372 23.7351C162.509 23.8294 162.69 23.8802 162.914 23.8802C163.168 23.8802 163.37 23.8258 163.522 23.717C163.674 23.6081 163.747 23.4775 163.747 23.3251C163.747 23.2018 163.703 23.0966 163.616 23.0131C163.53 22.9297 163.396 22.8644 163.218 22.8245L162.625 22.6866C162.299 22.6104 162.06 22.4907 161.908 22.3238C161.756 22.1569 161.68 21.9574 161.68 21.7107C161.68 21.5111 161.738 21.3297 161.85 21.1773C161.963 21.025 162.118 20.9016 162.317 20.8145C162.516 20.7275 162.737 20.6839 162.987 20.6839C163.338 20.6839 163.616 20.7601 163.816 20.9161C164.015 21.0721 164.159 21.2753 164.246 21.5293L164.25 21.5184Z" fill="white"/>
<path d="M29.0434 25.8212C28.2978 26.5105 27.1325 26.8552 25.5509 26.8552C23.9694 26.8552 22.6846 26.3763 21.6097 25.4185C20.5349 24.4607 19.9666 23.2199 19.9087 21.6925H14.2412C14.3932 23.4484 14.8384 25.0158 15.5875 26.3835C16.5285 28.1069 17.8422 29.4383 19.5287 30.378C21.2152 31.3213 23.1623 31.793 25.3736 31.793C27.4039 31.793 29.076 31.4701 30.3897 30.8279C31.7034 30.1857 32.7566 29.4057 33.5492 28.4914C34.3382 27.5772 34.9462 26.7318 35.3624 25.9554L30.748 23.5319C30.3607 24.37 29.7925 25.1319 29.047 25.8212H29.0434Z" fill="white"/>
<path d="M34.7 13.7362C33.8061 12.0165 32.5503 10.6668 30.9362 9.69453C29.3257 8.72221 27.4292 8.23605 25.2469 8.23605C23.0646 8.23605 21.0958 8.7077 19.4238 9.65099C17.7517 10.5943 16.4525 11.9258 15.526 13.6455C14.918 14.7774 14.5126 16.0436 14.3063 17.4404H19.916C20.1259 16.1524 20.676 15.1221 21.5735 14.3421C22.4711 13.5656 23.6798 13.1738 25.1999 13.1738C26.7199 13.1738 27.8491 13.562 28.7611 14.3421C29.6731 15.1221 30.187 16.1524 30.3064 17.4404H23.6147V21.6598H36.0391V19.7297C36.0391 17.4549 35.5903 15.4559 34.6964 13.7362H34.7Z" fill="white"/>
<path d="M110.441 25.8212C109.695 26.5105 108.53 26.8552 106.948 26.8552C105.367 26.8552 104.082 26.3763 103.007 25.4185C101.932 24.4607 101.364 23.2199 101.306 21.6925H95.6387C95.7907 23.4484 96.2359 25.0158 96.985 26.3835C97.926 28.1069 99.2397 29.4383 100.926 30.378C102.613 31.3213 104.56 31.793 106.771 31.793C108.801 31.793 110.473 31.4701 111.787 30.8279C113.101 30.1857 114.154 29.4057 114.947 28.4914C115.736 27.5772 116.344 26.7318 116.76 25.9554L112.146 23.5319C111.758 24.37 111.19 25.1319 110.445 25.8212H110.441Z" fill="white"/>
<path d="M116.101 13.7362C115.207 12.0165 113.951 10.6668 112.337 9.69453C110.727 8.72221 108.83 8.23605 106.648 8.23605C104.466 8.23605 102.497 8.7077 100.825 9.65099C99.1529 10.5943 97.8537 11.9258 96.9272 13.6455C96.3191 14.7774 95.9138 16.0436 95.7075 17.4404H101.317C101.527 16.1524 102.077 15.1221 102.975 14.3421C103.872 13.5656 105.081 13.1738 106.601 13.1738C108.121 13.1738 109.25 13.562 110.162 14.3421C111.074 15.1221 111.588 16.1524 111.708 17.4404H105.016V21.6598H117.44V19.7297C117.44 17.4549 116.992 15.4559 116.098 13.7362H116.101Z" fill="white"/>
<path d="M45.8723 17.4694C46.1546 16.4536 46.6323 15.6083 47.3163 14.948C48.4816 13.8269 49.9293 13.2645 51.6592 13.2645C53.3892 13.2645 54.8766 13.8269 56.0275 14.948C56.7043 15.6083 57.1748 16.45 57.4534 17.4694H63.3055V-0.202759H57.6633V11.5158H56.8563C56.5559 10.9753 56.1252 10.4673 55.557 9.98842C54.9888 9.50952 54.2505 9.11406 53.3385 8.79842C52.4265 8.48278 51.3009 8.32678 49.9582 8.32678C48.1668 8.32678 46.5092 8.7694 44.9856 9.65101C43.4619 10.5326 42.2387 11.8278 41.3122 13.533C40.6897 14.6795 40.2807 15.9965 40.0781 17.4658H45.8686L45.8723 17.4694Z" fill="white"/>
<path d="M57.6633 21.6599C57.4643 23.1619 56.9142 24.3555 56.0058 25.2298C54.8404 26.3509 53.3928 26.9133 51.6628 26.9133C49.9329 26.9133 48.4816 26.3509 47.3199 25.2298C46.4115 24.3555 45.865 23.1619 45.6623 21.6599H39.9731C40.1034 23.5682 40.5485 25.2298 41.3158 26.6448C42.2423 28.35 43.4728 29.6452 45.0109 30.5304C46.549 31.412 48.1993 31.8547 49.9582 31.8547C51.9885 31.8547 53.5339 31.51 54.5943 30.8207C55.6547 30.1313 56.4364 29.3694 56.9467 28.5314H57.7538V31.227H63.3091V21.6635H57.6669L57.6633 21.6599Z" fill="white"/>
<path d="M74.4017 17.4694C74.6767 16.4354 75.1726 15.5792 75.8928 14.9044C77.0581 13.8124 78.5058 13.2645 80.2357 13.2645C81.9656 13.2645 83.4531 13.8124 84.604 14.9044C85.3133 15.5792 85.8019 16.4354 86.0733 17.4694H91.882V8.9544H86.3267V11.65H85.5196C85.0419 10.8736 84.2819 10.1226 83.236 9.40428C82.19 8.68593 80.6519 8.32675 78.6216 8.32675C76.8012 8.32675 75.1219 8.76937 73.5838 9.65099C72.0457 10.5326 70.8152 11.806 69.8887 13.4677C69.2372 14.6359 68.821 15.971 68.6292 17.4694H74.4017Z" fill="white"/>
<path d="M86.1747 21.6598C85.9358 22.9042 85.4074 23.9237 84.5787 24.7146C83.4133 25.8212 81.9657 26.3763 80.2357 26.3763C78.5058 26.3763 77.0545 25.8212 75.8928 24.7146C75.064 23.9273 74.5356 22.9042 74.2968 21.6598H68.575C68.7342 23.3686 69.1685 24.8743 69.8923 26.1731C70.8188 27.8347 72.0493 29.1082 73.5874 29.9898C75.1255 30.8714 76.8048 31.314 78.6252 31.314C79.9969 31.314 81.1333 31.1508 82.0308 30.8206C82.9284 30.4905 83.6449 30.0805 84.1806 29.5871C84.7162 29.0937 85.136 28.6075 85.4364 28.1286H86.2435V33.919C86.2435 34.8187 85.8237 35.265 84.9876 35.265H72.0891V40.2028H86.9601C88.4511 40.2028 89.649 39.7456 90.543 38.8314C91.4405 37.9171 91.8857 36.6981 91.8857 35.1707V21.6562H86.1819L86.1747 21.6598Z" fill="white"/>
</g>
<defs>
<clipPath id="clip0_1_111">
<rect width="177" height="40" fill="white"/>
</clipPath>
</defs>
</svg>
